<?xml version="1.0" encoding="UTF-8"?>
<!DOCTYPE svg PUBLIC "-//W3C//DTD SVG 1.1//EN" "http://www.w3.org/Graphics/SVG/1.1/DTD/svg11.dtd">
<svg xmlns="http://www.w3.org/2000/svg" version="1.1" width="1024px" height="1024px" style="shape-rendering:geometricPrecision; text-rendering:geometricPrecision; image-rendering:optimizeQuality; fill-rule:evenodd; clip-rule:evenodd" xmlns:xlink="http://www.w3.org/1999/xlink">
<g><path style="opacity:1" fill="#FF9400" d="M 456.5,146.5 C 565.405,137.672 661.072,169.672 743.5,242.5C 800.334,296.831 836.834,362.498 853,439.5C 853.499,443.821 853.666,448.154 853.5,452.5C 830.678,455.455 808.012,458.622 785.5,462C 768.874,376.152 724.541,309.152 652.5,261C 591.531,223.593 525.531,209.593 454.5,219C 454,218.5 453.5,218 453,217.5C 450.102,195.714 446.602,174.047 442.5,152.5C 442.977,151.522 443.643,150.689 444.5,150C 448.758,149.244 452.758,148.077 456.5,146.5 Z"/></g>
<g><path style="opacity:1" fill="#FF9400" d="M 483.5,268.5 C 576.454,266.418 648.62,303.752 700,380.5C 716.074,407.711 727.24,436.877 733.5,468C 732.624,469.585 731.291,470.585 729.5,471C 707.26,474.192 685.26,477.359 663.5,480.5C 650.034,411.438 609.701,366.272 542.5,345C 520.304,338.775 497.804,337.275 475,340.5C 473.893,340.415 472.893,340.081 472,339.5C 468.038,317.177 464.704,294.511 462,271.5C 469.237,270.27 476.403,269.27 483.5,268.5 Z"/></g>
<g><path style="opacity:1" fill="#FF9400" d="M 578.5,401.5 C 580.487,402.164 582.154,403.331 583.5,405C 580.944,411.336 578.777,417.836 577,424.5C 538.74,571.055 500.74,717.055 463,862.5C 462.612,863.428 461.945,864.095 461,864.5C 455.764,857.706 450.764,850.706 446,843.5C 367.846,716.523 288.679,590.19 208.5,464.5C 207.386,463.277 207.219,461.944 208,460.5C 213.223,458.8 218.556,457.466 224,456.5C 250.268,453.004 276.602,449.004 303,444.5C 303.75,445.126 304.584,445.626 305.5,446C 347.065,518.207 388.565,590.373 430,662.5C 434.645,648.23 437.811,634.063 439.5,620C 444.929,601.841 448.929,583.508 451.5,565C 463.345,516.449 474.178,467.616 484,418.5C 486.166,416.879 488.666,416.045 491.5,416C 516.436,411.948 541.27,408.448 566,405.5C 570.358,404.428 574.525,403.094 578.5,401.5 Z"/></g>
</svg>
